<?xml version="1.0" encoding="UTF-8" standalone="no"?>
<svg
   xmlns:dc="http://purl.org/dc/elements/1.1/"
   xmlns:cc="http://creativecommons.org/ns#"
   xmlns:rdf="http://www.w3.org/1999/02/22-rdf-syntax-ns#"
   xmlns:svg="http://www.w3.org/2000/svg"
   xmlns="http://www.w3.org/2000/svg"
   xmlns:sodipodi="http://sodipodi.sourceforge.net/DTD/sodipodi-0.dtd"
   xmlns:inkscape="http://www.inkscape.org/namespaces/inkscape"
   width="512"
   height="200"
   viewBox="0 0 135.46667 52.916668"
   version="1.1"
   id="svg8"
   inkscape:version="1.0 (4035a4fb49, 2020-05-01)"
   sodipodi:docname="logo.svg">
  <defs
     id="defs2" />
  <sodipodi:namedview
     id="base"
     pagecolor="#ffffff"
     bordercolor="#666666"
     borderopacity="1.0"
     inkscape:pageopacity="0.0"
     inkscape:pageshadow="2"
     inkscape:zoom="2"
     inkscape:cx="246.78417"
     inkscape:cy="74.528245"
     inkscape:document-units="mm"
     inkscape:current-layer="layer1"
     inkscape:document-rotation="0"
     showgrid="false"
     inkscape:window-width="1920"
     inkscape:window-height="1174"
     inkscape:window-x="0"
     inkscape:window-y="0"
     inkscape:window-maximized="1"
     units="px" />
  <metadata
     id="metadata5">
    <rdf:RDF>
      <cc:Work
         rdf:about="">
        <dc:format>image/svg+xml</dc:format>
        <dc:type
           rdf:resource="http://purl.org/dc/dcmitype/StillImage" />
        <dc:title></dc:title>
      </cc:Work>
    </rdf:RDF>
  </metadata>
  <g
     inkscape:label="Layer 1"
     inkscape:groupmode="layer"
     id="layer1">
    <g
       id="g1221"
       transform="matrix(0.66757554,0,0,0.66721668,4.248905,-29.150748)"
       style="stroke:#000001;stroke-opacity:0.500555">
      <rect
         style="opacity:1;vector-effect:none;fill:#000000;fill-opacity:1;stroke:#000001;stroke-width:0.257969;stroke-linecap:round;stroke-linejoin:miter;stroke-miterlimit:3.9;stroke-dasharray:none;stroke-dashoffset:0;stroke-opacity:0.500555;paint-order:markers fill stroke"
         id="rect890-7-9"
         width="109.91592"
         height="7.7336292"
         x="38.571613"
         y="115.13696"
         ry="3.8668146" />
      <rect
         style="opacity:1;vector-effect:none;fill:#000000;fill-opacity:1;stroke:#000001;stroke-width:0.257969;stroke-linecap:round;stroke-linejoin:miter;stroke-miterlimit:3.9;stroke-dasharray:none;stroke-dashoffset:0;stroke-opacity:0.500555;paint-order:markers fill stroke"
         id="rect892-0-2"
         width="8.8106794"
         height="40.137409"
         x="-6.2357306"
         y="82.733177"
         ry="4.4053397" />
      <rect
         ry="4.4053397"
         y="82.733177"
         x="187.61897"
         height="40.137409"
         width="8.8106794"
         id="rect892-7-9-0"
         style="opacity:1;vector-effect:none;fill:#000000;fill-opacity:1;stroke:#000001;stroke-width:0.257969;stroke-linecap:round;stroke-linejoin:miter;stroke-miterlimit:3.9;stroke-dasharray:none;stroke-dashoffset:0;stroke-opacity:0.500555;paint-order:markers fill stroke" />
      <circle
         style="opacity:1;vector-effect:none;fill:#000000;fill-opacity:1;stroke:#000001;stroke-width:0.241561;stroke-linecap:round;stroke-linejoin:miter;stroke-miterlimit:3.9;stroke-dasharray:none;stroke-dashoffset:0;stroke-opacity:0.500555;paint-order:markers fill stroke"
         id="path847-6-3-3-2"
         cx="170.28174"
         cy="61.754051"
         r="12.99837" />
      <circle
         style="opacity:1;vector-effect:none;fill:#000000;fill-opacity:1;stroke:#000001;stroke-width:0.241561;stroke-linecap:round;stroke-linejoin:miter;stroke-miterlimit:3.9;stroke-dasharray:none;stroke-dashoffset:0;stroke-opacity:0.500555;paint-order:markers fill stroke"
         id="path847-6-5-6-3"
         cx="20.076283"
         cy="61.486778"
         r="12.99837" />
      <path
         style="fill:#000000;fill-opacity:1;stroke:#000001;stroke-width:0.264583px;stroke-linecap:butt;stroke-linejoin:miter;stroke-opacity:0.500555"
         d="m 8.5410054,122.86727 0.0861,-35.239535 c -0.0655,-3.01878 5.2054096,-9.05624 11.0401896,-9.12232 4.28766,-0.0486 8.118368,3.48042 10.385858,6.01676 l 0.650941,14.32329 -0.0468,24.021805 z"
         id="path849-3-6-0-7"
         sodipodi:nodetypes="ccscccc" />
      <path
         sodipodi:nodetypes="ccsccc"
         id="path849-3-6-2-6-5"
         d="m 181.44033,122.86727 -0.0861,-35.239545 c 0.0655,-3.01878 -5.20541,-9.05623 -11.0402,-9.12231 -4.28766,-0.0486 -11.0876,3.09946 -10.99043,6.50021 v 37.861645 z"
         style="fill:#000000;fill-opacity:1;stroke:#000001;stroke-width:0.264583px;stroke-linecap:butt;stroke-linejoin:miter;stroke-opacity:0.500555" />
      <circle
         r="12.99837"
         cy="56.809227"
         cx="94.401299"
         id="path847-6-5-9-2-9"
         style="opacity:1;vector-effect:none;fill:#000000;fill-opacity:1;stroke:#000001;stroke-width:0.241561;stroke-linecap:round;stroke-linejoin:miter;stroke-miterlimit:3.9;stroke-dasharray:none;stroke-dashoffset:0;stroke-opacity:0.500555;paint-order:markers fill stroke" />
      <path
         style="fill:#000000;fill-opacity:1;stroke:#000001;stroke-width:0.264583px;stroke-linecap:butt;stroke-linejoin:miter;stroke-opacity:0.500555"
         d="M 81.602813,111.3186 H 107.4861 V 90.538655 c 0,0 4.78082,4.48022 4.78082,10.387075 l -0.0367,3.29482 c 0,2.813 3.53183,5.10995 5.70842,5.11 2.00501,4e-5 5.6461,-2.31215 5.6461,-5.11 0,-17.559785 -12.89182,-31.481225 -28.885375,-31.481225 -15.441062,0 -29.090022,14.36272 -29.090022,31.481225 0,2.79633 3.10665,5.11 5.792182,5.11 2.264288,0 5.497869,-2.5842 5.497869,-5.11 l 0.009,-3.44204 c 0,-5.459885 4.728472,-10.278645 4.728472,-10.278645 z"
         id="path1028-6-2"
         sodipodi:nodetypes="cccccscccscccc" />
      <path
         inkscape:transform-center-y="-16.339551"
         inkscape:transform-center-x="7.6267026"
         style="fill:#000000;fill-opacity:1;stroke:#000001;stroke-width:0.264583px;stroke-linecap:butt;stroke-linejoin:miter;stroke-opacity:0.500555"
         d="m 175.54707,90.594395 c -1.41825,-1.34044 -23.51372,-23.0674 -24.51588,-23.09957 v -11.73565 c -0.023,-1.5596 -2.65751,-4.51961 -5.20037,-4.61321 -2.83521,-0.10428 -5.20585,2.77078 -5.20036,4.42171 v 13.46284 c -0.1229,1.2676 0.74784,3.35317 1.96362,4.62449 l 24.06356,22.67337 z"
         id="path849-3-6-2-6-8-2"
         sodipodi:nodetypes="cccsccccc" />
      <path
         sodipodi:nodetypes="ccccsccccc"
         id="path849-3-6-2-6-8-2-8"
         d="m 20.320375,81.905555 9.732778,2.61662 c 6.610972,6.78868 14.6347,15.13373 14.655911,15.741515 l 11.73561,-0.0328 c 1.55965,0.0187 4.52701,2.64488 4.627721,5.18746 0.112199,2.83491 -2.756231,5.21357 -4.407172,5.2127 l -13.462789,0.0376 c -1.267251,0.12644 -3.355239,-0.73847 -4.629952,-1.95069 L 15.831965,84.717845 Z"
         style="fill:#000000;fill-opacity:1;stroke:#000001;stroke-width:0.264583px;stroke-linecap:butt;stroke-linejoin:miter;stroke-opacity:0.500555"
         inkscape:transform-center-x="-16.366152"
         inkscape:transform-center-y="7.5983479" />
    </g>
  </g>
</svg>
